<svg width="60" height="60" viewBox="0 0 60 60" fill="none" xmlns="http://www.w3.org/2000/svg">
<g clip-path="url(#clip0_1_16)">
<path d="M59.3247 49.168C61.2474 52.5007 58.834 56.6667 54.9938 56.6667H5.00562C1.15802 56.6667 -1.24427 52.4943 0.674687 49.168L25.6691 5.83177C27.5927 2.4975 32.4107 2.50354 34.3309 5.83177L59.3247 49.168ZM30 40.2083C27.3536 40.2083 25.2083 42.3536 25.2083 45C25.2083 47.6463 27.3536 49.7917 30 49.7917C32.6464 49.7917 34.7917 47.6463 34.7917 45C34.7917 42.3536 32.6464 40.2083 30 40.2083ZM25.4507 22.9848L26.2234 37.1515C26.2596 37.8144 26.8077 38.3333 27.4716 38.3333H32.5284C33.1923 38.3333 33.7404 37.8144 33.7766 37.1515L34.5493 22.9848C34.5883 22.2687 34.0182 21.6667 33.3011 21.6667H26.6987C25.9817 21.6667 25.4117 22.2687 25.4507 22.9848Z" fill="#EAB308"/>
</g>
<defs>
<clipPath id="clip0_1_16">
<rect width="60" height="60" fill="white"/>
</clipPath>
</defs>
</svg>
